<svg width="390" height="298" viewBox="0 0 390 298" fill="none" xmlns="http://www.w3.org/2000/svg">
<path d="M376.598 0.108887H13.4024C6.00082 0.108887 0 6.11041 0 13.5146V283.628C0 291.032 6.00082 297.034 13.4024 297.034H376.597C383.999 297.034 389.999 291.032 389.999 283.628V13.5146C390 6.11041 383.999 0.108887 376.598 0.108887Z" fill="#3F9D61"/>
<path d="M390 283.625V13.5169C390 6.10743 383.997 0.110474 376.597 0.110474H355.018C362.418 0.110474 368.421 6.10743 368.421 13.5169V283.624C368.421 291.034 362.418 297.031 355.018 297.031H376.597C383.997 297.031 390 291.035 390 283.625Z" fill="#1F8243"/>
<path d="M390 58.1623V13.5169C390 6.10743 383.997 0.110474 376.597 0.110474H13.4032C6.00311 0.111236 0 6.10819 0 13.5169V58.1623H390Z" fill="#E3F4FF"/>
<path d="M390 58.1623V13.5169C390 6.10743 383.997 0.110474 376.597 0.110474H355.018C362.418 0.110474 368.421 6.10743 368.421 13.5169V58.1623H390Z" fill="#BDDFF4"/>
<path d="M75.416 34.9675H75.3421C72.0918 34.9675 69.457 32.3321 69.457 29.0811C69.457 25.83 72.0918 23.1946 75.3421 23.1946C78.5923 23.1946 81.2644 25.83 81.2644 29.0811C81.2644 32.3321 78.6662 34.9675 75.416 34.9675Z" fill="#54DDAC"/>
<path d="M56.1329 35.0239C52.9108 35.0239 50.2829 32.4288 50.2494 29.1984C50.2151 25.9473 52.8224 23.2845 56.0727 23.2502C59.2879 23.2067 62.0217 25.8239 62.056 29.0749C62.0903 32.3267 59.5195 34.9888 56.2692 35.0231L56.1953 35.0239C56.1748 35.0239 56.1534 35.0239 56.1329 35.0239Z" fill="#FDC142"/>
<path d="M36.9249 35.0795C33.7028 35.0795 31.0741 32.4845 31.0413 29.254C31.0078 26.0022 33.6152 23.3393 36.8654 23.3058C36.886 23.3058 36.9073 23.3058 36.9271 23.3058C40.15 23.3058 42.8145 25.9008 42.848 29.1313C42.8815 32.3824 40.3115 35.0452 37.0604 35.0787L36.9865 35.0795C36.9667 35.0795 36.9454 35.0795 36.9249 35.0795Z" fill="#FC3E81"/>
<path d="M131.66 35.0796H111.236C107.985 35.0796 105.351 32.4442 105.351 29.1931C105.351 25.9421 107.985 23.3066 111.236 23.3066H131.66C134.91 23.3066 137.545 25.9421 137.545 29.1931C137.545 32.4442 134.91 35.0796 131.66 35.0796Z" fill="#BDDFF4"/>
<path d="M126.658 141.593H121.552V134.638C121.552 128.84 116.846 124.14 111.04 124.14C105.235 124.14 100.528 128.84 100.528 134.638V141.593H75.998L93.662 111.727C96.6144 106.735 94.9557 100.297 89.9568 97.3488C84.958 94.3995 78.5123 96.0568 75.5599 101.048L48.529 146.752C46.6098 149.997 46.5801 154.022 48.4506 157.295C50.3218 160.568 53.806 162.589 57.5805 162.589H100.529V194.228C100.529 200.026 105.235 204.727 111.041 204.727C116.847 204.727 121.553 200.026 121.553 194.228V162.589H126.659C132.464 162.589 137.171 157.889 137.171 152.091C137.17 146.293 132.464 141.593 126.658 141.593Z" fill="#FD9E28"/>
<path d="M332.419 141.593H327.314V134.638C327.314 128.84 322.607 124.14 316.802 124.14C310.996 124.14 306.29 128.84 306.29 134.638V141.593H281.759L299.423 111.727C302.375 106.735 300.716 100.297 295.718 97.3488C290.719 94.3995 284.273 96.0568 281.321 101.048L254.29 146.752C252.371 149.997 252.341 154.022 254.211 157.295C256.083 160.568 259.567 162.589 263.341 162.589H306.29V194.228C306.29 200.026 310.996 204.727 316.802 204.727C322.607 204.727 327.314 200.026 327.314 194.228V162.589H332.419C338.225 162.589 342.931 157.889 342.931 152.091C342.931 146.293 338.225 141.593 332.419 141.593Z" fill="#FD9E28"/>
<path fill-rule="evenodd" clip-rule="evenodd" d="M181.549 204.725H208.451C221.76 204.725 232.588 193.912 232.588 180.619V119.993C232.588 106.701 221.76 95.8871 208.451 95.8871H181.549C168.24 95.8871 157.412 106.7 157.412 119.993V180.619C157.412 193.911 168.24 204.725 181.549 204.725ZM180.368 124.144C180.368 121.206 182.763 118.814 185.705 118.814H204.294C207.237 118.814 209.632 121.206 209.632 124.144V176.468C209.632 179.407 207.237 181.798 204.294 181.798H185.705C182.763 181.798 180.368 179.406 180.368 176.468V124.144Z" fill="#FD9E28"/>
<path d="M283.273 272.579C280.01 272.579 277.327 269.934 277.327 266.671C277.327 263.407 279.935 260.763 283.198 260.763H283.273C286.536 260.763 289.181 263.408 289.181 266.671C289.181 269.934 286.536 272.579 283.273 272.579Z" fill="#E3F4FF"/>
<path d="M302.84 272.636C299.577 272.636 296.894 269.991 296.894 266.728C296.894 263.465 299.501 260.82 302.765 260.82H302.84C306.103 260.82 308.748 263.465 308.748 266.728C308.748 269.991 306.103 272.636 302.84 272.636Z" fill="#E3F4FF"/>
<path d="M322.408 272.693C322.388 272.693 322.367 272.693 322.346 272.693C319.083 272.66 316.428 269.987 316.461 266.724C316.495 263.482 319.096 260.876 322.331 260.876C322.352 260.876 322.372 260.876 322.393 260.876L322.468 260.876C325.731 260.91 328.349 263.582 328.315 266.846C328.282 270.087 325.642 272.693 322.408 272.693Z" fill="#E3F4FF"/>
<path d="M69.8367 248.314H50.2694C47.0064 248.314 44.3613 245.692 44.3613 242.458C44.3613 239.223 47.0064 236.601 50.2694 236.601H69.8367C73.0997 236.601 75.7449 239.223 75.7449 242.458C75.7449 245.692 73.0997 248.314 69.8367 248.314Z" fill="#E3F4FF"/>
<path d="M89.404 272.639H50.2694C47.0064 272.639 44.3613 270.017 44.3613 266.783C44.3613 263.548 47.0064 260.926 50.2694 260.926H89.404C92.667 260.926 95.3122 263.548 95.3122 266.783C95.3122 270.017 92.667 272.639 89.404 272.639Z" fill="#E3F4FF"/>
</svg>
